<mxfile host="65bd71144e">
    <diagram id="Fbh0Pr7zhVWQmWneBdYl" name="第 1 页">
        <mxGraphModel dx="1055" dy="494" grid="1" gridSize="10" guides="1" tooltips="1" connect="1" arrows="1" fold="1" page="1" pageScale="1" pageWidth="1169" pageHeight="827" background="#ffffff" math="0" shadow="0">
            <root>
                <mxCell id="0"/>
                <mxCell id="1" parent="0"/>
                <mxCell id="2" value="" style="rounded=0;whiteSpace=wrap;html=1;fillColor=none;strokeColor=#000000;strokeWidth=3;movable=0;resizable=0;rotatable=0;deletable=0;editable=0;connectable=0;" parent="1" vertex="1">
                    <mxGeometry x="50" y="19" width="1989" height="770" as="geometry"/>
                </mxCell>
                <mxCell id="3" value="" style="rounded=0;whiteSpace=wrap;html=1;fillColor=none;strokeColor=#000000;strokeWidth=3;movable=0;resizable=0;rotatable=0;deletable=0;editable=0;connectable=0;" parent="1" vertex="1">
                    <mxGeometry x="80" y="120" width="100" height="100" as="geometry"/>
                </mxCell>
                <mxCell id="4" value="" style="rounded=0;whiteSpace=wrap;html=1;strokeColor=#000000;strokeWidth=3;fillColor=none;movable=0;resizable=0;rotatable=0;deletable=0;editable=0;connectable=0;" parent="1" vertex="1">
                    <mxGeometry x="240" y="120" width="160" height="180" as="geometry"/>
                </mxCell>
                <mxCell id="46" value="" style="edgeStyle=orthogonalEdgeStyle;html=1;startArrow=blockThin;startFill=1;endArrow=none;endFill=0;" edge="1" parent="1" source="5" target="27">
                    <mxGeometry relative="1" as="geometry"/>
                </mxCell>
                <mxCell id="5" value="" style="rounded=0;whiteSpace=wrap;html=1;strokeColor=#000000;strokeWidth=3;fillColor=none;movable=0;resizable=0;rotatable=0;deletable=0;editable=0;connectable=0;" parent="1" vertex="1">
                    <mxGeometry x="440" y="120" width="200" height="260" as="geometry"/>
                </mxCell>
                <mxCell id="6" value="" style="rounded=0;whiteSpace=wrap;html=1;strokeColor=#000000;strokeWidth=3;fillColor=none;movable=0;resizable=0;rotatable=0;deletable=0;editable=0;connectable=0;" parent="1" vertex="1">
                    <mxGeometry x="462" y="440" width="150" height="220" as="geometry"/>
                </mxCell>
                <mxCell id="7" value="" style="rounded=0;whiteSpace=wrap;html=1;strokeColor=#000000;strokeWidth=3;fillColor=none;movable=0;resizable=0;rotatable=0;deletable=0;editable=0;connectable=0;" parent="1" vertex="1">
                    <mxGeometry x="700" y="120" width="180" height="260" as="geometry"/>
                </mxCell>
                <mxCell id="8" value="" style="rounded=0;whiteSpace=wrap;html=1;strokeColor=#000000;strokeWidth=3;fillColor=none;" parent="1" vertex="1">
                    <mxGeometry x="940" y="120" width="130" height="180" as="geometry"/>
                </mxCell>
                <mxCell id="9" value="" style="rounded=0;whiteSpace=wrap;html=1;strokeColor=#000000;strokeWidth=3;fillColor=none;movable=0;resizable=0;rotatable=0;deletable=0;editable=0;connectable=0;" parent="1" vertex="1">
                    <mxGeometry x="1360" y="120" width="220" height="160" as="geometry"/>
                </mxCell>
                <mxCell id="10" value="" style="rounded=0;whiteSpace=wrap;html=1;strokeColor=#000000;strokeWidth=3;fillColor=none;movable=0;resizable=0;rotatable=0;deletable=0;editable=0;connectable=0;" parent="1" vertex="1">
                    <mxGeometry x="1620" y="120" width="270" height="180" as="geometry"/>
                </mxCell>
                <mxCell id="11" value="pc" style="text;html=1;strokeColor=none;fillColor=none;align=right;verticalAlign=middle;whiteSpace=wrap;rounded=0;strokeWidth=3;fontColor=#000000;fontStyle=1;spacing=2;spacingRight=5;movable=0;resizable=0;rotatable=0;deletable=0;editable=0;connectable=0;" parent="1" vertex="1">
                    <mxGeometry x="119" y="125" width="60" height="30" as="geometry"/>
                </mxCell>
                <mxCell id="51" style="edgeStyle=orthogonalEdgeStyle;html=1;startArrow=none;startFill=0;endArrow=blockThin;endFill=1;strokeColor=#000000;rounded=0;fontSize=15;fontColor=#000000;movable=0;resizable=0;rotatable=0;deletable=0;editable=0;connectable=0;" edge="1" parent="1" source="12">
                    <mxGeometry relative="1" as="geometry">
                        <mxPoint x="200" y="788" as="targetPoint"/>
                        <Array as="points">
                            <mxPoint x="200" y="200"/>
                            <mxPoint x="200" y="788"/>
                        </Array>
                    </mxGeometry>
                </mxCell>
                <mxCell id="12" value="ce" style="text;html=1;strokeColor=none;fillColor=none;align=right;verticalAlign=middle;whiteSpace=wrap;rounded=0;strokeWidth=3;fontColor=#000000;fontStyle=1;spacing=2;spacingRight=5;movable=0;resizable=0;rotatable=0;deletable=0;editable=0;connectable=0;" parent="1" vertex="1">
                    <mxGeometry x="120" y="185" width="60" height="30" as="geometry"/>
                </mxCell>
                <mxCell id="14" value="Fetch" style="text;html=1;strokeColor=none;fillColor=none;align=center;verticalAlign=middle;whiteSpace=wrap;rounded=0;strokeWidth=3;fontColor=#000000;fontFamily=Helvetica;fontSize=15;fontStyle=1;movable=0;resizable=0;rotatable=0;deletable=0;editable=0;connectable=0;" parent="1" vertex="1">
                    <mxGeometry x="100" y="90" width="60" height="30" as="geometry"/>
                </mxCell>
                <mxCell id="16" value="inst" style="text;html=1;strokeColor=none;fillColor=none;align=left;verticalAlign=middle;whiteSpace=wrap;rounded=0;strokeWidth=3;fontColor=#000000;fontStyle=1;spacingLeft=5;movable=1;resizable=1;rotatable=1;deletable=1;editable=1;connectable=1;" parent="1" vertex="1">
                    <mxGeometry x="241" y="185" width="60" height="30" as="geometry"/>
                </mxCell>
                <mxCell id="18" value="" style="endArrow=blockThin;html=1;fontFamily=Helvetica;fontSize=15;fontColor=#000000;strokeColor=#000000;rounded=0;endFill=1;entryX=0;entryY=0.5;entryDx=0;entryDy=0;edgeStyle=orthogonalEdgeStyle;movable=0;resizable=0;rotatable=0;deletable=0;editable=0;connectable=0;" parent="1" source="11" edge="1" target="26">
                    <mxGeometry width="50" height="50" relative="1" as="geometry">
                        <mxPoint x="200" y="190" as="sourcePoint"/>
                        <mxPoint x="240" y="140" as="targetPoint"/>
                    </mxGeometry>
                </mxCell>
                <mxCell id="26" value="pc" style="text;html=1;strokeColor=none;fillColor=none;align=left;verticalAlign=middle;whiteSpace=wrap;rounded=0;strokeWidth=3;fontColor=#000000;fontStyle=1;spacingLeft=5;movable=0;resizable=0;rotatable=0;deletable=0;editable=0;connectable=0;" parent="1" vertex="1">
                    <mxGeometry x="240" y="125" width="60" height="30" as="geometry"/>
                </mxCell>
                <mxCell id="27" value="inst" style="text;html=1;strokeColor=none;fillColor=none;align=right;verticalAlign=middle;whiteSpace=wrap;rounded=0;strokeWidth=3;fontColor=#000000;fontStyle=1;spacingRight=5;movable=0;resizable=0;rotatable=0;deletable=0;editable=0;connectable=0;" parent="1" vertex="1">
                    <mxGeometry x="340" y="185" width="60" height="30" as="geometry"/>
                </mxCell>
                <mxCell id="28" value="pc" style="text;html=1;strokeColor=none;fillColor=none;align=right;verticalAlign=middle;whiteSpace=wrap;rounded=0;strokeWidth=3;fontColor=#000000;fontStyle=1;spacingRight=5;movable=0;resizable=0;rotatable=0;deletable=0;editable=0;connectable=0;" parent="1" vertex="1">
                    <mxGeometry x="339" y="124" width="60" height="30" as="geometry"/>
                </mxCell>
                <mxCell id="29" value="inst" style="text;html=1;strokeColor=none;fillColor=none;align=left;verticalAlign=middle;whiteSpace=wrap;rounded=0;strokeWidth=3;fontColor=#000000;fontStyle=1;spacingLeft=5;movable=0;resizable=0;rotatable=0;deletable=0;editable=0;connectable=0;" parent="1" vertex="1">
                    <mxGeometry x="440" y="185" width="60" height="30" as="geometry"/>
                </mxCell>
                <mxCell id="30" value="pc" style="text;html=1;strokeColor=none;fillColor=none;align=left;verticalAlign=middle;whiteSpace=wrap;rounded=0;strokeWidth=3;fontColor=#000000;fontStyle=1;spacingLeft=5;movable=0;resizable=0;rotatable=0;deletable=0;editable=0;connectable=0;" parent="1" vertex="1">
                    <mxGeometry x="440" y="124" width="60" height="30" as="geometry"/>
                </mxCell>
                <mxCell id="31" value="" style="endArrow=blockThin;html=1;rounded=0;strokeColor=#000000;fontFamily=Helvetica;fontSize=15;fontColor=#000000;endFill=1;edgeStyle=orthogonalEdgeStyle;movable=0;resizable=0;rotatable=0;deletable=0;editable=0;connectable=0;" parent="1" source="28" target="30" edge="1">
                    <mxGeometry width="50" height="50" relative="1" as="geometry">
                        <mxPoint x="410" y="140" as="sourcePoint"/>
                        <mxPoint x="410" y="180" as="targetPoint"/>
                    </mxGeometry>
                </mxCell>
                <mxCell id="33" value="" style="endArrow=blockThin;html=1;rounded=0;strokeColor=#000000;fontFamily=Helvetica;fontSize=15;fontColor=#000000;endFill=1;edgeStyle=orthogonalEdgeStyle;movable=0;resizable=0;rotatable=0;deletable=0;editable=0;connectable=0;" parent="1" source="27" target="29" edge="1">
                    <mxGeometry width="50" height="50" relative="1" as="geometry">
                        <mxPoint x="420" y="190" as="sourcePoint"/>
                        <mxPoint x="420" y="230" as="targetPoint"/>
                    </mxGeometry>
                </mxCell>
                <mxCell id="35" value="" style="endArrow=none;html=1;rounded=0;strokeColor=#000000;fontFamily=Helvetica;fontSize=15;fontColor=#000000;endFill=0;edgeStyle=orthogonalEdgeStyle;startArrow=blockThin;startFill=1;movable=0;resizable=0;rotatable=0;deletable=0;editable=0;connectable=0;" edge="1" parent="1" source="16">
                    <mxGeometry width="50" height="50" relative="1" as="geometry">
                        <mxPoint x="220" y="750" as="sourcePoint"/>
                        <mxPoint x="220" y="790" as="targetPoint"/>
                    </mxGeometry>
                </mxCell>
                <mxCell id="36" value="DecoderStage" style="text;html=1;strokeColor=none;fillColor=none;align=center;verticalAlign=middle;whiteSpace=wrap;rounded=0;strokeWidth=3;fontColor=#000000;fontFamily=Helvetica;fontSize=15;fontStyle=1;movable=0;resizable=0;rotatable=0;deletable=0;editable=0;connectable=0;" vertex="1" parent="1">
                    <mxGeometry x="290" y="91" width="60" height="30" as="geometry"/>
                </mxCell>
                <mxCell id="37" value="Decoder" style="text;html=1;strokeColor=none;fillColor=none;align=center;verticalAlign=middle;whiteSpace=wrap;rounded=0;strokeWidth=3;fontColor=#000000;fontFamily=Helvetica;fontSize=15;fontStyle=1;movable=0;resizable=0;rotatable=0;deletable=0;editable=0;connectable=0;" vertex="1" parent="1">
                    <mxGeometry x="507" y="92" width="60" height="30" as="geometry"/>
                </mxCell>
                <mxCell id="38" value="reg1_data" style="text;html=1;strokeColor=none;fillColor=none;align=left;verticalAlign=middle;whiteSpace=wrap;rounded=0;strokeWidth=3;fontColor=#000000;fontStyle=1;spacingLeft=5;movable=0;resizable=0;rotatable=0;deletable=0;editable=0;connectable=0;" vertex="1" parent="1">
                    <mxGeometry x="439" y="300" width="60" height="30" as="geometry"/>
                </mxCell>
                <mxCell id="41" value="reg2_data" style="text;html=1;strokeColor=none;fillColor=none;align=left;verticalAlign=middle;whiteSpace=wrap;rounded=0;strokeWidth=3;fontColor=#000000;fontStyle=1;spacingLeft=5;movable=0;resizable=0;rotatable=0;deletable=0;editable=0;connectable=0;" vertex="1" parent="1">
                    <mxGeometry x="439" y="330" width="60" height="30" as="geometry"/>
                </mxCell>
                <mxCell id="42" value="reg1_data" style="text;html=1;strokeColor=none;fillColor=none;align=left;verticalAlign=middle;whiteSpace=wrap;rounded=0;strokeWidth=3;fontColor=#000000;fontStyle=1;spacingLeft=5;movable=0;resizable=0;rotatable=0;deletable=0;editable=0;connectable=0;" vertex="1" parent="1">
                    <mxGeometry x="460" y="575" width="60" height="30" as="geometry"/>
                </mxCell>
                <mxCell id="43" value="reg2_data" style="text;html=1;strokeColor=none;fillColor=none;align=left;verticalAlign=middle;whiteSpace=wrap;rounded=0;strokeWidth=3;fontColor=#000000;fontStyle=1;spacingLeft=5;movable=0;resizable=0;rotatable=0;deletable=0;editable=0;connectable=0;" vertex="1" parent="1">
                    <mxGeometry x="460" y="490" width="60" height="30" as="geometry"/>
                </mxCell>
                <mxCell id="44" value="" style="endArrow=blockThin;html=1;rounded=0;strokeColor=#000000;fontFamily=Helvetica;fontSize=15;fontColor=#000000;endFill=1;edgeStyle=orthogonalEdgeStyle;entryX=0;entryY=0.5;entryDx=0;entryDy=0;exitX=0;exitY=0.5;exitDx=0;exitDy=0;movable=0;resizable=0;rotatable=0;deletable=0;editable=0;connectable=0;" edge="1" parent="1" source="42" target="38">
                    <mxGeometry width="50" height="50" relative="1" as="geometry">
                        <mxPoint x="400" y="460" as="sourcePoint"/>
                        <mxPoint x="400" y="500" as="targetPoint"/>
                        <Array as="points">
                            <mxPoint x="360" y="590"/>
                            <mxPoint x="360" y="315"/>
                        </Array>
                    </mxGeometry>
                </mxCell>
                <mxCell id="45" value="" style="endArrow=blockThin;html=1;rounded=0;strokeColor=#000000;fontFamily=Helvetica;fontSize=15;fontColor=#000000;endFill=1;edgeStyle=orthogonalEdgeStyle;exitX=0;exitY=0.5;exitDx=0;exitDy=0;entryX=0;entryY=0.5;entryDx=0;entryDy=0;movable=0;resizable=0;rotatable=0;deletable=0;editable=0;connectable=0;" edge="1" parent="1" source="43" target="41">
                    <mxGeometry width="50" height="50" relative="1" as="geometry">
                        <mxPoint x="420" y="450" as="sourcePoint"/>
                        <mxPoint x="420" y="490" as="targetPoint"/>
                        <Array as="points">
                            <mxPoint x="400" y="505"/>
                            <mxPoint x="400" y="345"/>
                        </Array>
                    </mxGeometry>
                </mxCell>
                <mxCell id="52" value="InstMemory" style="text;html=1;strokeColor=none;fillColor=none;align=center;verticalAlign=middle;whiteSpace=wrap;rounded=0;strokeWidth=3;fontColor=#000000;fontFamily=Helvetica;fontSize=15;fontStyle=1" vertex="1" parent="1">
                    <mxGeometry x="181" y="794" width="60" height="30" as="geometry"/>
                </mxCell>
                <mxCell id="66" style="edgeStyle=orthogonalEdgeStyle;rounded=0;html=1;entryX=0;entryY=0.5;entryDx=0;entryDy=0;strokeColor=#000000;startArrow=none;startFill=0;endArrow=blockThin;endFill=1;movable=0;resizable=0;rotatable=0;deletable=0;editable=0;connectable=0;" edge="1" parent="1" source="54" target="60">
                    <mxGeometry relative="1" as="geometry"/>
                </mxCell>
                <mxCell id="54" value="aluop" style="text;html=1;strokeColor=none;fillColor=none;align=right;verticalAlign=middle;whiteSpace=wrap;rounded=0;strokeWidth=3;fontColor=#000000;fontStyle=1;spacingLeft=5;movable=1;resizable=1;rotatable=1;deletable=1;editable=1;connectable=1;spacingRight=5;" vertex="1" parent="1">
                    <mxGeometry x="580" y="124" width="60" height="30" as="geometry"/>
                </mxCell>
                <mxCell id="67" style="edgeStyle=orthogonalEdgeStyle;rounded=0;html=1;entryX=0;entryY=0.5;entryDx=0;entryDy=0;strokeColor=#000000;startArrow=none;startFill=0;endArrow=blockThin;endFill=1;movable=0;resizable=0;rotatable=0;deletable=0;editable=0;connectable=0;" edge="1" parent="1" source="55" target="61">
                    <mxGeometry relative="1" as="geometry"/>
                </mxCell>
                <mxCell id="55" value="alusel" style="text;html=1;strokeColor=none;fillColor=none;align=right;verticalAlign=middle;whiteSpace=wrap;rounded=0;strokeWidth=3;fontColor=#000000;fontStyle=1;spacingLeft=5;movable=1;resizable=1;rotatable=1;deletable=1;editable=1;connectable=1;spacingRight=5;" vertex="1" parent="1">
                    <mxGeometry x="580" y="146" width="60" height="30" as="geometry"/>
                </mxCell>
                <mxCell id="68" style="edgeStyle=orthogonalEdgeStyle;rounded=0;html=1;exitX=1;exitY=0.5;exitDx=0;exitDy=0;entryX=0;entryY=0.5;entryDx=0;entryDy=0;strokeColor=#000000;startArrow=none;startFill=0;endArrow=blockThin;endFill=1;" edge="1" parent="1" source="56" target="62">
                    <mxGeometry relative="1" as="geometry"/>
                </mxCell>
                <mxCell id="70" style="edgeStyle=orthogonalEdgeStyle;rounded=0;html=1;entryX=0;entryY=0.5;entryDx=0;entryDy=0;strokeColor=#000000;startArrow=none;startFill=0;endArrow=blockThin;endFill=1;" edge="1" parent="1" source="57" target="63">
                    <mxGeometry relative="1" as="geometry"/>
                </mxCell>
                <mxCell id="71" style="edgeStyle=orthogonalEdgeStyle;rounded=0;html=1;entryX=0;entryY=0.5;entryDx=0;entryDy=0;strokeColor=#000000;startArrow=none;startFill=0;endArrow=blockThin;endFill=1;" edge="1" parent="1" source="58" target="64">
                    <mxGeometry relative="1" as="geometry"/>
                </mxCell>
                <mxCell id="72" style="edgeStyle=orthogonalEdgeStyle;rounded=0;html=1;entryX=0;entryY=0.5;entryDx=0;entryDy=0;strokeColor=#000000;startArrow=none;startFill=0;endArrow=blockThin;endFill=1;" edge="1" parent="1" source="59" target="65">
                    <mxGeometry relative="1" as="geometry"/>
                </mxCell>
                <mxCell id="59" value="wreg" style="text;html=1;strokeColor=none;fillColor=none;align=right;verticalAlign=middle;whiteSpace=wrap;rounded=0;strokeWidth=3;fontColor=#000000;fontStyle=1;spacingLeft=5;movable=1;resizable=1;rotatable=1;deletable=1;editable=1;connectable=1;spacingRight=5;" vertex="1" parent="1">
                    <mxGeometry x="579" y="232" width="60" height="30" as="geometry"/>
                </mxCell>
                <mxCell id="76" style="edgeStyle=orthogonalEdgeStyle;rounded=0;html=1;entryX=0;entryY=0.5;entryDx=0;entryDy=0;strokeColor=#000000;startArrow=none;startFill=0;endArrow=blockThin;endFill=1;movable=0;resizable=0;rotatable=0;deletable=0;editable=0;connectable=0;" edge="1" parent="1">
                    <mxGeometry relative="1" as="geometry">
                        <mxPoint x="640" y="226" as="sourcePoint"/>
                        <mxPoint x="701" y="226" as="targetPoint"/>
                    </mxGeometry>
                </mxCell>
                <mxCell id="77" style="edgeStyle=orthogonalEdgeStyle;rounded=0;html=1;entryX=0;entryY=0.5;entryDx=0;entryDy=0;strokeColor=#000000;startArrow=none;startFill=0;endArrow=blockThin;endFill=1;movable=0;resizable=0;rotatable=0;deletable=0;editable=0;connectable=0;" edge="1" parent="1">
                    <mxGeometry relative="1" as="geometry">
                        <mxPoint x="639" y="247" as="sourcePoint"/>
                        <mxPoint x="700" y="247" as="targetPoint"/>
                    </mxGeometry>
                </mxCell>
                <mxCell id="78" style="edgeStyle=orthogonalEdgeStyle;rounded=0;html=1;entryX=0;entryY=0.5;entryDx=0;entryDy=0;strokeColor=#000000;startArrow=none;startFill=0;endArrow=blockThin;endFill=1;movable=0;resizable=0;rotatable=0;deletable=0;editable=0;connectable=0;" edge="1" parent="1">
                    <mxGeometry relative="1" as="geometry">
                        <mxPoint x="640" y="204" as="sourcePoint"/>
                        <mxPoint x="701" y="204" as="targetPoint"/>
                    </mxGeometry>
                </mxCell>
                <mxCell id="79" style="edgeStyle=orthogonalEdgeStyle;rounded=0;html=1;exitX=1;exitY=0.5;exitDx=0;exitDy=0;entryX=0;entryY=0.5;entryDx=0;entryDy=0;strokeColor=#000000;startArrow=none;startFill=0;endArrow=blockThin;endFill=1;movable=0;resizable=0;rotatable=0;deletable=0;editable=0;connectable=0;" edge="1" parent="1">
                    <mxGeometry relative="1" as="geometry">
                        <mxPoint x="640" y="185" as="sourcePoint"/>
                        <mxPoint x="701" y="185" as="targetPoint"/>
                    </mxGeometry>
                </mxCell>
                <mxCell id="87" value="ExecuteStage" style="text;html=1;strokeColor=none;fillColor=none;align=center;verticalAlign=middle;whiteSpace=wrap;rounded=0;strokeWidth=3;fontColor=#000000;fontFamily=Helvetica;fontSize=15;fontStyle=1;movable=0;resizable=0;rotatable=0;deletable=0;editable=0;connectable=0;" vertex="1" parent="1">
                    <mxGeometry x="761" y="91" width="60" height="30" as="geometry"/>
                </mxCell>
                <mxCell id="88" value="" style="endArrow=blockThin;html=1;rounded=0;strokeColor=#000000;fontFamily=Helvetica;fontSize=15;fontColor=#000000;endFill=1;edgeStyle=orthogonalEdgeStyle;entryX=0.08;entryY=0.998;entryDx=0;entryDy=0;entryPerimeter=0;movable=0;resizable=0;rotatable=0;deletable=0;editable=0;connectable=0;" edge="1" parent="1" target="2">
                    <mxGeometry width="50" height="50" relative="1" as="geometry">
                        <mxPoint x="210" y="140" as="sourcePoint"/>
                        <mxPoint x="210" y="780" as="targetPoint"/>
                    </mxGeometry>
                </mxCell>
                <mxCell id="106" style="edgeStyle=orthogonalEdgeStyle;rounded=0;html=1;entryX=0;entryY=0.5;entryDx=0;entryDy=0;strokeColor=#000000;startArrow=none;startFill=0;endArrow=blockThin;endFill=1;movable=0;resizable=0;rotatable=0;deletable=0;editable=0;connectable=0;" edge="1" parent="1" source="94" target="99">
                    <mxGeometry relative="1" as="geometry"/>
                </mxCell>
                <mxCell id="107" style="edgeStyle=orthogonalEdgeStyle;rounded=0;html=1;entryX=0;entryY=0.5;entryDx=0;entryDy=0;strokeColor=#000000;startArrow=none;startFill=0;endArrow=blockThin;endFill=1;movable=0;resizable=0;rotatable=0;deletable=0;editable=0;connectable=0;" edge="1" parent="1" source="96" target="100">
                    <mxGeometry relative="1" as="geometry"/>
                </mxCell>
                <mxCell id="108" style="edgeStyle=orthogonalEdgeStyle;rounded=0;html=1;entryX=0;entryY=0.5;entryDx=0;entryDy=0;strokeColor=#000000;startArrow=none;startFill=0;endArrow=blockThin;endFill=1;movable=0;resizable=0;rotatable=0;deletable=0;editable=0;connectable=0;" edge="1" parent="1" source="91" target="101">
                    <mxGeometry relative="1" as="geometry"/>
                </mxCell>
                <mxCell id="109" style="edgeStyle=orthogonalEdgeStyle;rounded=0;html=1;entryX=0;entryY=0.5;entryDx=0;entryDy=0;strokeColor=#000000;startArrow=none;startFill=0;endArrow=blockThin;endFill=1;movable=0;resizable=0;rotatable=0;deletable=0;editable=0;connectable=0;" edge="1" parent="1" source="92" target="102">
                    <mxGeometry relative="1" as="geometry"/>
                </mxCell>
                <mxCell id="110" style="edgeStyle=orthogonalEdgeStyle;rounded=0;html=1;entryX=0;entryY=0.5;entryDx=0;entryDy=0;strokeColor=#000000;startArrow=none;startFill=0;endArrow=blockThin;endFill=1;movable=0;resizable=0;rotatable=0;deletable=0;editable=0;connectable=0;" edge="1" parent="1" source="93" target="103">
                    <mxGeometry relative="1" as="geometry"/>
                </mxCell>
                <mxCell id="111" style="edgeStyle=orthogonalEdgeStyle;rounded=0;html=1;entryX=0;entryY=0.5;entryDx=0;entryDy=0;strokeColor=#000000;startArrow=none;startFill=0;endArrow=blockThin;endFill=1;movable=0;resizable=0;rotatable=0;deletable=0;editable=0;connectable=0;" edge="1" parent="1" source="95" target="104">
                    <mxGeometry relative="1" as="geometry"/>
                </mxCell>
                <mxCell id="112" value="Execute" style="text;html=1;strokeColor=none;fillColor=none;align=center;verticalAlign=middle;whiteSpace=wrap;rounded=0;strokeWidth=3;fontColor=#000000;fontFamily=Helvetica;fontSize=15;fontStyle=1;movable=0;resizable=0;rotatable=0;deletable=0;editable=0;connectable=0;" vertex="1" parent="1">
                    <mxGeometry x="980" y="92" width="60" height="30" as="geometry"/>
                </mxCell>
                <mxCell id="56" value="reg1" style="text;html=1;strokeColor=none;fillColor=none;align=right;verticalAlign=middle;whiteSpace=wrap;rounded=0;strokeWidth=3;fontColor=#000000;fontStyle=1;spacingLeft=5;movable=0;resizable=0;rotatable=0;deletable=0;editable=0;connectable=0;spacingRight=5;" vertex="1" parent="1">
                    <mxGeometry x="580" y="170" width="60" height="30" as="geometry"/>
                </mxCell>
                <mxCell id="57" value="reg2" style="text;html=1;strokeColor=none;fillColor=none;align=right;verticalAlign=middle;whiteSpace=wrap;rounded=0;strokeWidth=3;fontColor=#000000;fontStyle=1;spacingLeft=5;movable=0;resizable=0;rotatable=0;deletable=0;editable=0;connectable=0;spacingRight=5;" vertex="1" parent="1">
                    <mxGeometry x="580" y="189" width="60" height="30" as="geometry"/>
                </mxCell>
                <mxCell id="58" value="wd" style="text;html=1;strokeColor=none;fillColor=none;align=right;verticalAlign=middle;whiteSpace=wrap;rounded=0;strokeWidth=3;fontColor=#000000;fontStyle=1;spacingLeft=5;movable=0;resizable=0;rotatable=0;deletable=0;editable=0;connectable=0;spacingRight=5;" vertex="1" parent="1">
                    <mxGeometry x="580" y="211" width="60" height="30" as="geometry"/>
                </mxCell>
                <mxCell id="73" value="aluop" style="text;html=1;strokeColor=none;fillColor=none;align=right;verticalAlign=middle;whiteSpace=wrap;rounded=0;strokeWidth=3;fontColor=#000000;fontStyle=1;spacingLeft=5;movable=0;resizable=0;rotatable=0;deletable=0;editable=0;connectable=0;spacingRight=5;" vertex="1" parent="1">
                    <mxGeometry x="579.5" y="124" width="60" height="30" as="geometry"/>
                </mxCell>
                <mxCell id="74" value="wreg" style="text;html=1;strokeColor=none;fillColor=none;align=right;verticalAlign=middle;whiteSpace=wrap;rounded=0;strokeWidth=3;fontColor=#000000;fontStyle=1;spacingLeft=5;movable=0;resizable=0;rotatable=0;deletable=0;editable=0;connectable=0;spacingRight=5;" vertex="1" parent="1">
                    <mxGeometry x="578.5" y="232" width="60" height="30" as="geometry"/>
                </mxCell>
                <mxCell id="75" value="alusel" style="text;html=1;strokeColor=none;fillColor=none;align=right;verticalAlign=middle;whiteSpace=wrap;rounded=0;strokeWidth=3;fontColor=#000000;fontStyle=1;spacingLeft=5;movable=0;resizable=0;rotatable=0;deletable=0;editable=0;connectable=0;spacingRight=5;" vertex="1" parent="1">
                    <mxGeometry x="579.5" y="146" width="60" height="30" as="geometry"/>
                </mxCell>
                <mxCell id="60" value="aluop" style="text;html=1;strokeColor=none;fillColor=none;align=left;verticalAlign=middle;whiteSpace=wrap;rounded=0;strokeWidth=3;fontColor=#000000;fontStyle=1;spacingLeft=5;movable=0;resizable=0;rotatable=0;deletable=0;editable=0;connectable=0;spacingRight=5;" vertex="1" parent="1">
                    <mxGeometry x="701" y="124" width="60" height="30" as="geometry"/>
                </mxCell>
                <mxCell id="61" value="alusel" style="text;html=1;strokeColor=none;fillColor=none;align=left;verticalAlign=middle;whiteSpace=wrap;rounded=0;strokeWidth=3;fontColor=#000000;fontStyle=1;spacingLeft=5;movable=0;resizable=0;rotatable=0;deletable=0;editable=0;connectable=0;spacingRight=5;" vertex="1" parent="1">
                    <mxGeometry x="701" y="146" width="60" height="30" as="geometry"/>
                </mxCell>
                <mxCell id="62" value="reg1" style="text;html=1;strokeColor=none;fillColor=none;align=left;verticalAlign=middle;whiteSpace=wrap;rounded=0;strokeWidth=3;fontColor=#000000;fontStyle=1;spacingLeft=5;movable=0;resizable=0;rotatable=0;deletable=0;editable=0;connectable=0;spacingRight=5;" vertex="1" parent="1">
                    <mxGeometry x="701" y="170" width="60" height="30" as="geometry"/>
                </mxCell>
                <mxCell id="63" value="reg2" style="text;html=1;strokeColor=none;fillColor=none;align=left;verticalAlign=middle;whiteSpace=wrap;rounded=0;strokeWidth=3;fontColor=#000000;fontStyle=1;spacingLeft=5;movable=0;resizable=0;rotatable=0;deletable=0;editable=0;connectable=0;spacingRight=5;" vertex="1" parent="1">
                    <mxGeometry x="701" y="189" width="60" height="30" as="geometry"/>
                </mxCell>
                <mxCell id="64" value="wd" style="text;html=1;strokeColor=none;fillColor=none;align=left;verticalAlign=middle;whiteSpace=wrap;rounded=0;strokeWidth=3;fontColor=#000000;fontStyle=1;spacingLeft=5;movable=0;resizable=0;rotatable=0;deletable=0;editable=0;connectable=0;spacingRight=5;" vertex="1" parent="1">
                    <mxGeometry x="701" y="211" width="60" height="30" as="geometry"/>
                </mxCell>
                <mxCell id="65" value="wreg" style="text;html=1;strokeColor=none;fillColor=none;align=left;verticalAlign=middle;whiteSpace=wrap;rounded=0;strokeWidth=3;fontColor=#000000;fontStyle=1;spacingLeft=5;movable=0;resizable=0;rotatable=0;deletable=0;editable=0;connectable=0;spacingRight=5;" vertex="1" parent="1">
                    <mxGeometry x="700" y="232" width="60" height="30" as="geometry"/>
                </mxCell>
                <mxCell id="99" value="aluop" style="text;html=1;strokeColor=none;fillColor=none;align=left;verticalAlign=middle;whiteSpace=wrap;rounded=0;strokeWidth=3;fontColor=#000000;fontStyle=1;spacingLeft=5;movable=0;resizable=0;rotatable=0;deletable=0;editable=0;connectable=0;spacingRight=5;" vertex="1" parent="1">
                    <mxGeometry x="941" y="125" width="60" height="30" as="geometry"/>
                </mxCell>
                <mxCell id="100" value="alusel" style="text;html=1;strokeColor=none;fillColor=none;align=left;verticalAlign=middle;whiteSpace=wrap;rounded=0;strokeWidth=3;fontColor=#000000;fontStyle=1;spacingLeft=5;movable=0;resizable=0;rotatable=0;deletable=0;editable=0;connectable=0;spacingRight=5;" vertex="1" parent="1">
                    <mxGeometry x="941" y="147" width="60" height="30" as="geometry"/>
                </mxCell>
                <mxCell id="101" value="reg1" style="text;html=1;strokeColor=none;fillColor=none;align=left;verticalAlign=middle;whiteSpace=wrap;rounded=0;strokeWidth=3;fontColor=#000000;fontStyle=1;spacingLeft=5;movable=0;resizable=0;rotatable=0;deletable=0;editable=0;connectable=0;spacingRight=5;" vertex="1" parent="1">
                    <mxGeometry x="941" y="171" width="60" height="30" as="geometry"/>
                </mxCell>
                <mxCell id="102" value="reg2" style="text;html=1;strokeColor=none;fillColor=none;align=left;verticalAlign=middle;whiteSpace=wrap;rounded=0;strokeWidth=3;fontColor=#000000;fontStyle=1;spacingLeft=5;movable=0;resizable=0;rotatable=0;deletable=0;editable=0;connectable=0;spacingRight=5;" vertex="1" parent="1">
                    <mxGeometry x="941" y="190" width="60" height="30" as="geometry"/>
                </mxCell>
                <mxCell id="103" value="wd" style="text;html=1;strokeColor=none;fillColor=none;align=left;verticalAlign=middle;whiteSpace=wrap;rounded=0;strokeWidth=3;fontColor=#000000;fontStyle=1;spacingLeft=5;movable=0;resizable=0;rotatable=0;deletable=0;editable=0;connectable=0;spacingRight=5;" vertex="1" parent="1">
                    <mxGeometry x="941" y="212" width="60" height="30" as="geometry"/>
                </mxCell>
                <mxCell id="104" value="wreg" style="text;html=1;strokeColor=none;fillColor=none;align=left;verticalAlign=middle;whiteSpace=wrap;rounded=0;strokeWidth=3;fontColor=#000000;fontStyle=1;spacingLeft=5;movable=0;resizable=0;rotatable=0;deletable=0;editable=0;connectable=0;spacingRight=5;" vertex="1" parent="1">
                    <mxGeometry x="940" y="233" width="60" height="30" as="geometry"/>
                </mxCell>
                <mxCell id="91" value="reg1" style="text;html=1;strokeColor=none;fillColor=none;align=right;verticalAlign=middle;whiteSpace=wrap;rounded=0;strokeWidth=3;fontColor=#000000;fontStyle=1;spacingLeft=5;movable=0;resizable=0;rotatable=0;deletable=0;editable=0;connectable=0;spacingRight=5;" vertex="1" parent="1">
                    <mxGeometry x="820" y="171" width="60" height="30" as="geometry"/>
                </mxCell>
                <mxCell id="92" value="reg2" style="text;html=1;strokeColor=none;fillColor=none;align=right;verticalAlign=middle;whiteSpace=wrap;rounded=0;strokeWidth=3;fontColor=#000000;fontStyle=1;spacingLeft=5;movable=0;resizable=0;rotatable=0;deletable=0;editable=0;connectable=0;spacingRight=5;" vertex="1" parent="1">
                    <mxGeometry x="820" y="190" width="60" height="30" as="geometry"/>
                </mxCell>
                <mxCell id="93" value="wd" style="text;html=1;strokeColor=none;fillColor=none;align=right;verticalAlign=middle;whiteSpace=wrap;rounded=0;strokeWidth=3;fontColor=#000000;fontStyle=1;spacingLeft=5;movable=0;resizable=0;rotatable=0;deletable=0;editable=0;connectable=0;spacingRight=5;" vertex="1" parent="1">
                    <mxGeometry x="820" y="212" width="60" height="30" as="geometry"/>
                </mxCell>
                <mxCell id="94" value="aluop" style="text;html=1;strokeColor=none;fillColor=none;align=right;verticalAlign=middle;whiteSpace=wrap;rounded=0;strokeWidth=3;fontColor=#000000;fontStyle=1;spacingLeft=5;movable=0;resizable=0;rotatable=0;deletable=0;editable=0;connectable=0;spacingRight=5;" vertex="1" parent="1">
                    <mxGeometry x="819.5" y="125" width="60" height="30" as="geometry"/>
                </mxCell>
                <mxCell id="95" value="wreg" style="text;html=1;strokeColor=none;fillColor=none;align=right;verticalAlign=middle;whiteSpace=wrap;rounded=0;strokeWidth=3;fontColor=#000000;fontStyle=1;spacingLeft=5;movable=0;resizable=0;rotatable=0;deletable=0;editable=0;connectable=0;spacingRight=5;" vertex="1" parent="1">
                    <mxGeometry x="818.5" y="233" width="60" height="30" as="geometry"/>
                </mxCell>
                <mxCell id="96" value="alusel" style="text;html=1;strokeColor=none;fillColor=none;align=right;verticalAlign=middle;whiteSpace=wrap;rounded=0;strokeWidth=3;fontColor=#000000;fontStyle=1;spacingLeft=5;movable=0;resizable=0;rotatable=0;deletable=0;editable=0;connectable=0;spacingRight=5;" vertex="1" parent="1">
                    <mxGeometry x="819.5" y="147" width="60" height="30" as="geometry"/>
                </mxCell>
                <mxCell id="118" value="" style="rounded=0;whiteSpace=wrap;html=1;strokeColor=#000000;strokeWidth=3;fillColor=none;" vertex="1" parent="1">
                    <mxGeometry x="1108" y="120" width="192" height="160" as="geometry"/>
                </mxCell>
                <mxCell id="126" style="edgeStyle=orthogonalEdgeStyle;rounded=0;html=1;entryX=0;entryY=0.5;entryDx=0;entryDy=0;strokeColor=#000000;startArrow=none;startFill=0;endArrow=blockThin;endFill=1;movable=0;resizable=0;rotatable=0;deletable=0;editable=0;connectable=0;" edge="1" parent="1" source="113" target="120">
                    <mxGeometry relative="1" as="geometry"/>
                </mxCell>
                <mxCell id="113" value="wreg" style="text;html=1;strokeColor=none;fillColor=none;align=right;verticalAlign=middle;whiteSpace=wrap;rounded=0;strokeWidth=3;fontColor=#000000;fontStyle=1;spacingLeft=5;movable=0;resizable=0;rotatable=0;deletable=0;editable=0;connectable=0;spacingRight=5;" vertex="1" parent="1">
                    <mxGeometry x="1009.5" y="172" width="60" height="30" as="geometry"/>
                </mxCell>
                <mxCell id="124" style="edgeStyle=orthogonalEdgeStyle;rounded=0;html=1;entryX=0;entryY=0.5;entryDx=0;entryDy=0;strokeColor=#000000;startArrow=none;startFill=0;endArrow=blockThin;endFill=1;movable=0;resizable=0;rotatable=0;deletable=0;editable=0;connectable=0;" edge="1" parent="1" source="114" target="121">
                    <mxGeometry relative="1" as="geometry"/>
                </mxCell>
                <mxCell id="114" value="wdata" style="text;html=1;strokeColor=none;fillColor=none;align=right;verticalAlign=middle;whiteSpace=wrap;rounded=0;strokeWidth=3;fontColor=#000000;fontStyle=1;spacingLeft=5;movable=0;resizable=0;rotatable=0;deletable=0;editable=0;connectable=0;spacingRight=5;" vertex="1" parent="1">
                    <mxGeometry x="1009" y="126" width="60" height="30" as="geometry"/>
                </mxCell>
                <mxCell id="125" style="edgeStyle=orthogonalEdgeStyle;rounded=0;html=1;entryX=0;entryY=0.5;entryDx=0;entryDy=0;strokeColor=#000000;startArrow=none;startFill=0;endArrow=blockThin;endFill=1;movable=0;resizable=0;rotatable=0;deletable=0;editable=0;connectable=0;" edge="1" parent="1" source="115" target="122">
                    <mxGeometry relative="1" as="geometry"/>
                </mxCell>
                <mxCell id="115" value="wd" style="text;html=1;strokeColor=none;fillColor=none;align=right;verticalAlign=middle;whiteSpace=wrap;rounded=0;strokeWidth=3;fontColor=#000000;fontStyle=1;spacingLeft=5;movable=0;resizable=0;rotatable=0;deletable=0;editable=0;connectable=0;spacingRight=5;" vertex="1" parent="1">
                    <mxGeometry x="1009" y="148" width="60" height="30" as="geometry"/>
                </mxCell>
                <mxCell id="120" value="wreg" style="text;html=1;strokeColor=none;fillColor=none;align=left;verticalAlign=middle;whiteSpace=wrap;rounded=0;strokeWidth=3;fontColor=#000000;fontStyle=1;spacingLeft=5;movable=0;resizable=0;rotatable=0;deletable=0;editable=0;connectable=0;spacingRight=5;" vertex="1" parent="1">
                    <mxGeometry x="1108.5" y="172" width="60" height="30" as="geometry"/>
                </mxCell>
                <mxCell id="121" value="wdata" style="text;html=1;strokeColor=none;fillColor=none;align=left;verticalAlign=middle;whiteSpace=wrap;rounded=0;strokeWidth=3;fontColor=#000000;fontStyle=1;spacingLeft=5;movable=0;resizable=0;rotatable=0;deletable=0;editable=0;connectable=0;spacingRight=5;" vertex="1" parent="1">
                    <mxGeometry x="1108" y="126" width="60" height="30" as="geometry"/>
                </mxCell>
                <mxCell id="122" value="wd" style="text;html=1;strokeColor=none;fillColor=none;align=left;verticalAlign=middle;whiteSpace=wrap;rounded=0;strokeWidth=3;fontColor=#000000;fontStyle=1;spacingLeft=5;movable=0;resizable=0;rotatable=0;deletable=0;editable=0;connectable=0;spacingRight=5;" vertex="1" parent="1">
                    <mxGeometry x="1108" y="148" width="60" height="30" as="geometry"/>
                </mxCell>
                <mxCell id="129" value="MemoryStage" style="text;html=1;strokeColor=none;fillColor=none;align=center;verticalAlign=middle;whiteSpace=wrap;rounded=0;strokeWidth=3;fontColor=#000000;fontFamily=Helvetica;fontSize=15;fontStyle=1;movable=0;resizable=0;rotatable=0;deletable=0;editable=0;connectable=0;" vertex="1" parent="1">
                    <mxGeometry x="1169" y="91" width="60" height="30" as="geometry"/>
                </mxCell>
                <mxCell id="138" style="edgeStyle=orthogonalEdgeStyle;rounded=0;html=1;entryX=0;entryY=0.5;entryDx=0;entryDy=0;strokeColor=#000000;startArrow=none;startFill=0;endArrow=blockThin;endFill=1;movable=0;resizable=0;rotatable=0;deletable=0;editable=0;connectable=0;" edge="1" parent="1" source="130" target="133">
                    <mxGeometry relative="1" as="geometry"/>
                </mxCell>
                <mxCell id="130" value="wreg" style="text;html=1;strokeColor=none;fillColor=none;align=right;verticalAlign=middle;whiteSpace=wrap;rounded=0;strokeWidth=3;fontColor=#000000;fontStyle=1;spacingLeft=5;movable=0;resizable=0;rotatable=0;deletable=0;editable=0;connectable=0;spacingRight=5;" vertex="1" parent="1">
                    <mxGeometry x="1240.5" y="171" width="60" height="30" as="geometry"/>
                </mxCell>
                <mxCell id="136" style="edgeStyle=orthogonalEdgeStyle;rounded=0;html=1;entryX=0;entryY=0.5;entryDx=0;entryDy=0;strokeColor=#000000;startArrow=none;startFill=0;endArrow=blockThin;endFill=1;movable=0;resizable=0;rotatable=0;deletable=0;editable=0;connectable=0;" edge="1" parent="1" source="131" target="134">
                    <mxGeometry relative="1" as="geometry"/>
                </mxCell>
                <mxCell id="131" value="wdata" style="text;html=1;strokeColor=none;fillColor=none;align=right;verticalAlign=middle;whiteSpace=wrap;rounded=0;strokeWidth=3;fontColor=#000000;fontStyle=1;spacingLeft=5;movable=0;resizable=0;rotatable=0;deletable=0;editable=0;connectable=0;spacingRight=5;" vertex="1" parent="1">
                    <mxGeometry x="1240" y="125" width="60" height="30" as="geometry"/>
                </mxCell>
                <mxCell id="137" style="edgeStyle=orthogonalEdgeStyle;rounded=0;html=1;entryX=0;entryY=0.5;entryDx=0;entryDy=0;strokeColor=#000000;startArrow=none;startFill=0;endArrow=blockThin;endFill=1;movable=0;resizable=0;rotatable=0;deletable=0;editable=0;connectable=0;" edge="1" parent="1" source="132" target="135">
                    <mxGeometry relative="1" as="geometry"/>
                </mxCell>
                <mxCell id="132" value="wd" style="text;html=1;strokeColor=none;fillColor=none;align=right;verticalAlign=middle;whiteSpace=wrap;rounded=0;strokeWidth=3;fontColor=#000000;fontStyle=1;spacingLeft=5;movable=0;resizable=0;rotatable=0;deletable=0;editable=0;connectable=0;spacingRight=5;" vertex="1" parent="1">
                    <mxGeometry x="1240" y="147" width="60" height="30" as="geometry"/>
                </mxCell>
                <mxCell id="133" value="wreg" style="text;html=1;strokeColor=none;fillColor=none;align=left;verticalAlign=middle;whiteSpace=wrap;rounded=0;strokeWidth=3;fontColor=#000000;fontStyle=1;spacingLeft=5;movable=0;resizable=0;rotatable=0;deletable=0;editable=0;connectable=0;spacingRight=5;" vertex="1" parent="1">
                    <mxGeometry x="1360.5" y="171" width="60" height="30" as="geometry"/>
                </mxCell>
                <mxCell id="134" value="wdata" style="text;html=1;strokeColor=none;fillColor=none;align=left;verticalAlign=middle;whiteSpace=wrap;rounded=0;strokeWidth=3;fontColor=#000000;fontStyle=1;spacingLeft=5;movable=0;resizable=0;rotatable=0;deletable=0;editable=0;connectable=0;spacingRight=5;" vertex="1" parent="1">
                    <mxGeometry x="1360" y="125" width="60" height="30" as="geometry"/>
                </mxCell>
                <mxCell id="135" value="wd" style="text;html=1;strokeColor=none;fillColor=none;align=left;verticalAlign=middle;whiteSpace=wrap;rounded=0;strokeWidth=3;fontColor=#000000;fontStyle=1;spacingLeft=5;movable=0;resizable=0;rotatable=0;deletable=0;editable=0;connectable=0;spacingRight=5;" vertex="1" parent="1">
                    <mxGeometry x="1360" y="147" width="60" height="30" as="geometry"/>
                </mxCell>
                <mxCell id="139" value="wreg" style="text;html=1;strokeColor=none;fillColor=none;align=left;verticalAlign=middle;whiteSpace=wrap;rounded=0;strokeWidth=3;fontColor=#000000;fontStyle=1;spacingLeft=5;movable=1;resizable=1;rotatable=1;deletable=1;editable=1;connectable=1;spacingRight=5;" vertex="1" parent="1">
                    <mxGeometry x="1620.5" y="170" width="60" height="30" as="geometry"/>
                </mxCell>
                <mxCell id="140" value="wdata" style="text;html=1;strokeColor=none;fillColor=none;align=left;verticalAlign=middle;whiteSpace=wrap;rounded=0;strokeWidth=3;fontColor=#000000;fontStyle=1;spacingLeft=5;movable=1;resizable=1;rotatable=1;deletable=1;editable=1;connectable=1;spacingRight=5;" vertex="1" parent="1">
                    <mxGeometry x="1620" y="124" width="60" height="30" as="geometry"/>
                </mxCell>
                <mxCell id="141" value="wd" style="text;html=1;strokeColor=none;fillColor=none;align=left;verticalAlign=middle;whiteSpace=wrap;rounded=0;strokeWidth=3;fontColor=#000000;fontStyle=1;spacingLeft=5;movable=1;resizable=1;rotatable=1;deletable=1;editable=1;connectable=1;spacingRight=5;" vertex="1" parent="1">
                    <mxGeometry x="1620" y="146" width="60" height="30" as="geometry"/>
                </mxCell>
                <mxCell id="149" style="edgeStyle=orthogonalEdgeStyle;rounded=0;html=1;entryX=0;entryY=0.5;entryDx=0;entryDy=0;strokeColor=#000000;startArrow=none;startFill=0;endArrow=blockThin;endFill=1;" edge="1" parent="1" source="142" target="139">
                    <mxGeometry relative="1" as="geometry"/>
                </mxCell>
                <mxCell id="142" value="wreg" style="text;html=1;strokeColor=none;fillColor=none;align=right;verticalAlign=middle;whiteSpace=wrap;rounded=0;strokeWidth=3;fontColor=#000000;fontStyle=1;spacingLeft=5;movable=0;resizable=0;rotatable=0;deletable=0;editable=0;connectable=0;spacingRight=5;" vertex="1" parent="1">
                    <mxGeometry x="1520" y="170" width="60" height="30" as="geometry"/>
                </mxCell>
                <mxCell id="147" style="edgeStyle=orthogonalEdgeStyle;rounded=0;html=1;entryX=0;entryY=0.5;entryDx=0;entryDy=0;strokeColor=#000000;startArrow=none;startFill=0;endArrow=blockThin;endFill=1;" edge="1" parent="1" source="143" target="140">
                    <mxGeometry relative="1" as="geometry"/>
                </mxCell>
                <mxCell id="143" value="wdata" style="text;html=1;strokeColor=none;fillColor=none;align=right;verticalAlign=middle;whiteSpace=wrap;rounded=0;strokeWidth=3;fontColor=#000000;fontStyle=1;spacingLeft=5;movable=1;resizable=1;rotatable=1;deletable=1;editable=1;connectable=1;spacingRight=5;" vertex="1" parent="1">
                    <mxGeometry x="1519.5" y="124" width="60" height="30" as="geometry"/>
                </mxCell>
                <mxCell id="148" style="edgeStyle=orthogonalEdgeStyle;rounded=0;html=1;entryX=0;entryY=0.5;entryDx=0;entryDy=0;strokeColor=#000000;startArrow=none;startFill=0;endArrow=blockThin;endFill=1;" edge="1" parent="1" source="144" target="141">
                    <mxGeometry relative="1" as="geometry"/>
                </mxCell>
                <mxCell id="144" value="wd" style="text;html=1;strokeColor=none;fillColor=none;align=right;verticalAlign=middle;whiteSpace=wrap;rounded=0;strokeWidth=3;fontColor=#000000;fontStyle=1;spacingLeft=5;movable=0;resizable=0;rotatable=0;deletable=0;editable=0;connectable=0;spacingRight=5;" vertex="1" parent="1">
                    <mxGeometry x="1519.5" y="146" width="60" height="30" as="geometry"/>
                </mxCell>
                <mxCell id="145" value="Memory" style="text;html=1;strokeColor=none;fillColor=none;align=center;verticalAlign=middle;whiteSpace=wrap;rounded=0;strokeWidth=3;fontColor=#000000;fontFamily=Helvetica;fontSize=15;fontStyle=1;movable=0;resizable=0;rotatable=0;deletable=0;editable=0;connectable=0;" vertex="1" parent="1">
                    <mxGeometry x="1440" y="92" width="60" height="30" as="geometry"/>
                </mxCell>
                <mxCell id="146" value="WriteBackStage" style="text;html=1;strokeColor=none;fillColor=none;align=center;verticalAlign=middle;whiteSpace=wrap;rounded=0;strokeWidth=3;fontColor=#000000;fontFamily=Helvetica;fontSize=15;fontStyle=1;movable=0;resizable=0;rotatable=0;deletable=0;editable=0;connectable=0;" vertex="1" parent="1">
                    <mxGeometry x="1724" y="91" width="60" height="30" as="geometry"/>
                </mxCell>
                <mxCell id="150" value="wdata" style="text;html=1;strokeColor=none;fillColor=none;align=left;verticalAlign=middle;whiteSpace=wrap;rounded=0;strokeWidth=3;fontColor=#000000;fontStyle=1;spacingLeft=5;movable=0;resizable=0;rotatable=0;deletable=0;editable=0;connectable=0;spacingRight=5;" vertex="1" parent="1">
                    <mxGeometry x="1620" y="124" width="60" height="30" as="geometry"/>
                </mxCell>
                <mxCell id="151" value="wd" style="text;html=1;strokeColor=none;fillColor=none;align=left;verticalAlign=middle;whiteSpace=wrap;rounded=0;strokeWidth=3;fontColor=#000000;fontStyle=1;spacingLeft=5;movable=0;resizable=0;rotatable=0;deletable=0;editable=0;connectable=0;spacingRight=5;" vertex="1" parent="1">
                    <mxGeometry x="1620" y="146" width="60" height="30" as="geometry"/>
                </mxCell>
                <mxCell id="152" value="wreg" style="text;html=1;strokeColor=none;fillColor=none;align=left;verticalAlign=middle;whiteSpace=wrap;rounded=0;strokeWidth=3;fontColor=#000000;fontStyle=1;spacingLeft=5;movable=0;resizable=0;rotatable=0;deletable=0;editable=0;connectable=0;spacingRight=5;" vertex="1" parent="1">
                    <mxGeometry x="1620.5" y="170" width="60" height="30" as="geometry"/>
                </mxCell>
                <mxCell id="153" style="edgeStyle=orthogonalEdgeStyle;rounded=0;html=1;entryX=0;entryY=0.5;entryDx=0;entryDy=0;strokeColor=#000000;startArrow=none;startFill=0;endArrow=blockThin;endFill=1;movable=0;resizable=0;rotatable=0;deletable=0;editable=0;connectable=0;" edge="1" target="151" parent="1">
                    <mxGeometry relative="1" as="geometry">
                        <mxPoint x="1579.5" y="161" as="sourcePoint"/>
                    </mxGeometry>
                </mxCell>
                <mxCell id="154" style="edgeStyle=orthogonalEdgeStyle;rounded=0;html=1;entryX=0;entryY=0.5;entryDx=0;entryDy=0;strokeColor=#000000;startArrow=none;startFill=0;endArrow=blockThin;endFill=1;movable=0;resizable=0;rotatable=0;deletable=0;editable=0;connectable=0;" edge="1" target="150" parent="1">
                    <mxGeometry relative="1" as="geometry">
                        <mxPoint x="1579.5" y="139" as="sourcePoint"/>
                    </mxGeometry>
                </mxCell>
                <mxCell id="155" style="edgeStyle=orthogonalEdgeStyle;rounded=0;html=1;entryX=0;entryY=0.5;entryDx=0;entryDy=0;strokeColor=#000000;startArrow=none;startFill=0;endArrow=blockThin;endFill=1;movable=0;resizable=0;rotatable=0;deletable=0;editable=0;connectable=0;" edge="1" target="152" parent="1">
                    <mxGeometry relative="1" as="geometry">
                        <mxPoint x="1580" y="185" as="sourcePoint"/>
                    </mxGeometry>
                </mxCell>
                <mxCell id="181" style="edgeStyle=orthogonalEdgeStyle;rounded=0;html=1;entryX=1;entryY=0.5;entryDx=0;entryDy=0;strokeColor=#000000;startArrow=none;startFill=0;endArrow=blockThin;endFill=1;movable=0;resizable=0;rotatable=0;deletable=0;editable=0;connectable=0;" edge="1" parent="1" source="156" target="175">
                    <mxGeometry relative="1" as="geometry">
                        <Array as="points">
                            <mxPoint x="1930" y="183"/>
                            <mxPoint x="1930" y="559"/>
                        </Array>
                    </mxGeometry>
                </mxCell>
                <mxCell id="156" value="wreg" style="text;html=1;strokeColor=none;fillColor=none;align=right;verticalAlign=middle;whiteSpace=wrap;rounded=0;strokeWidth=3;fontColor=#000000;fontStyle=1;spacingLeft=5;movable=0;resizable=0;rotatable=0;deletable=0;editable=0;connectable=0;spacingRight=5;" vertex="1" parent="1">
                    <mxGeometry x="1830" y="168" width="60" height="30" as="geometry"/>
                </mxCell>
                <mxCell id="179" style="edgeStyle=orthogonalEdgeStyle;rounded=0;html=1;entryX=1;entryY=0.5;entryDx=0;entryDy=0;strokeColor=#000000;startArrow=none;startFill=0;endArrow=blockThin;endFill=1;movable=0;resizable=0;rotatable=0;deletable=0;editable=0;connectable=0;" edge="1" parent="1" source="157" target="177">
                    <mxGeometry relative="1" as="geometry">
                        <Array as="points">
                            <mxPoint x="1970" y="137"/>
                            <mxPoint x="1970" y="600"/>
                        </Array>
                    </mxGeometry>
                </mxCell>
                <mxCell id="157" value="wdata" style="text;html=1;strokeColor=none;fillColor=none;align=right;verticalAlign=middle;whiteSpace=wrap;rounded=0;strokeWidth=3;fontColor=#000000;fontStyle=1;spacingLeft=5;movable=0;resizable=0;rotatable=0;deletable=0;editable=0;connectable=0;spacingRight=5;" vertex="1" parent="1">
                    <mxGeometry x="1829.5" y="122" width="60" height="30" as="geometry"/>
                </mxCell>
                <mxCell id="180" style="edgeStyle=orthogonalEdgeStyle;rounded=0;html=1;strokeColor=#000000;startArrow=none;startFill=0;endArrow=blockThin;endFill=1;entryX=1;entryY=0.5;entryDx=0;entryDy=0;movable=0;resizable=0;rotatable=0;deletable=0;editable=0;connectable=0;" edge="1" parent="1" source="158" target="176">
                    <mxGeometry relative="1" as="geometry">
                        <mxPoint x="840" y="500" as="targetPoint"/>
                        <Array as="points">
                            <mxPoint x="1950" y="159"/>
                            <mxPoint x="1950" y="578"/>
                        </Array>
                    </mxGeometry>
                </mxCell>
                <mxCell id="158" value="wd" style="text;html=1;strokeColor=none;fillColor=none;align=right;verticalAlign=middle;whiteSpace=wrap;rounded=0;strokeWidth=3;fontColor=#000000;fontStyle=1;spacingLeft=5;movable=0;resizable=0;rotatable=0;deletable=0;editable=0;connectable=0;spacingRight=5;" vertex="1" parent="1">
                    <mxGeometry x="1829.5" y="144" width="60" height="30" as="geometry"/>
                </mxCell>
                <mxCell id="159" value="wdata" style="text;html=1;strokeColor=none;fillColor=none;align=right;verticalAlign=middle;whiteSpace=wrap;rounded=0;strokeWidth=3;fontColor=#000000;fontStyle=1;spacingLeft=5;movable=0;resizable=0;rotatable=0;deletable=0;editable=0;connectable=0;spacingRight=5;" vertex="1" parent="1">
                    <mxGeometry x="1519.5" y="124" width="60" height="30" as="geometry"/>
                </mxCell>
                <mxCell id="172" style="edgeStyle=orthogonalEdgeStyle;rounded=0;html=1;entryX=1;entryY=0.5;entryDx=0;entryDy=0;strokeColor=#000000;startArrow=none;startFill=0;endArrow=blockThin;endFill=1;movable=0;resizable=0;rotatable=0;deletable=0;editable=0;connectable=0;" edge="1" parent="1" source="160" target="167">
                    <mxGeometry relative="1" as="geometry">
                        <Array as="points">
                            <mxPoint x="690" y="284"/>
                            <mxPoint x="690" y="517"/>
                        </Array>
                    </mxGeometry>
                </mxCell>
                <mxCell id="160" value="reg1_addr" style="text;html=1;strokeColor=none;fillColor=none;align=right;verticalAlign=middle;whiteSpace=wrap;rounded=0;strokeWidth=3;fontColor=#000000;fontStyle=1;spacingLeft=5;movable=1;resizable=1;rotatable=1;deletable=1;editable=1;connectable=1;spacingRight=5;" vertex="1" parent="1">
                    <mxGeometry x="578.5" y="269" width="60" height="30" as="geometry"/>
                </mxCell>
                <mxCell id="171" style="edgeStyle=orthogonalEdgeStyle;rounded=0;html=1;entryX=1;entryY=0.5;entryDx=0;entryDy=0;strokeColor=#000000;startArrow=none;startFill=0;endArrow=blockThin;endFill=1;movable=0;resizable=0;rotatable=0;deletable=0;editable=0;connectable=0;" edge="1" parent="1" source="161" target="166">
                    <mxGeometry relative="1" as="geometry">
                        <Array as="points">
                            <mxPoint x="680" y="303"/>
                            <mxPoint x="680" y="496"/>
                        </Array>
                    </mxGeometry>
                </mxCell>
                <mxCell id="161" value="reg1_read" style="text;html=1;strokeColor=none;fillColor=none;align=right;verticalAlign=middle;whiteSpace=wrap;rounded=0;strokeWidth=3;fontColor=#000000;fontStyle=1;spacingLeft=5;movable=1;resizable=1;rotatable=1;deletable=1;editable=1;connectable=1;spacingRight=5;" vertex="1" parent="1">
                    <mxGeometry x="578.5" y="288" width="60" height="30" as="geometry"/>
                </mxCell>
                <mxCell id="170" style="edgeStyle=orthogonalEdgeStyle;rounded=0;html=1;entryX=1;entryY=0.5;entryDx=0;entryDy=0;strokeColor=#000000;startArrow=none;startFill=0;endArrow=blockThin;endFill=1;movable=0;resizable=0;rotatable=0;deletable=0;editable=0;connectable=0;" edge="1" parent="1" source="162" target="165">
                    <mxGeometry relative="1" as="geometry">
                        <Array as="points">
                            <mxPoint x="670" y="325"/>
                            <mxPoint x="670" y="474"/>
                        </Array>
                    </mxGeometry>
                </mxCell>
                <mxCell id="162" value="reg2_addr" style="text;html=1;strokeColor=none;fillColor=none;align=right;verticalAlign=middle;whiteSpace=wrap;rounded=0;strokeWidth=3;fontColor=#000000;fontStyle=1;spacingLeft=5;movable=0;resizable=0;rotatable=0;deletable=0;editable=0;connectable=0;spacingRight=5;" vertex="1" parent="1">
                    <mxGeometry x="578.5" y="310" width="60" height="30" as="geometry"/>
                </mxCell>
                <mxCell id="169" style="edgeStyle=orthogonalEdgeStyle;rounded=0;html=1;entryX=1;entryY=0.5;entryDx=0;entryDy=0;strokeColor=#000000;startArrow=none;startFill=0;endArrow=blockThin;endFill=1;movable=0;resizable=0;rotatable=0;deletable=0;editable=0;connectable=0;" edge="1" parent="1" source="163" target="164">
                    <mxGeometry relative="1" as="geometry">
                        <Array as="points">
                            <mxPoint x="660" y="346"/>
                            <mxPoint x="660" y="455"/>
                        </Array>
                    </mxGeometry>
                </mxCell>
                <mxCell id="163" value="reg2_read" style="text;html=1;strokeColor=none;fillColor=none;align=right;verticalAlign=middle;whiteSpace=wrap;rounded=0;strokeWidth=3;fontColor=#000000;fontStyle=1;spacingLeft=5;movable=0;resizable=0;rotatable=0;deletable=0;editable=0;connectable=0;spacingRight=5;" vertex="1" parent="1">
                    <mxGeometry x="579" y="331" width="60" height="30" as="geometry"/>
                </mxCell>
                <mxCell id="164" value="reg2_read" style="text;html=1;strokeColor=none;fillColor=none;align=right;verticalAlign=middle;whiteSpace=wrap;rounded=0;strokeWidth=3;fontColor=#000000;fontStyle=1;spacingLeft=5;movable=0;resizable=0;rotatable=0;deletable=0;editable=0;connectable=0;spacingRight=5;" vertex="1" parent="1">
                    <mxGeometry x="552" y="440" width="60" height="30" as="geometry"/>
                </mxCell>
                <mxCell id="165" value="reg2_addr" style="text;html=1;strokeColor=none;fillColor=none;align=right;verticalAlign=middle;whiteSpace=wrap;rounded=0;strokeWidth=3;fontColor=#000000;fontStyle=1;spacingLeft=5;movable=0;resizable=0;rotatable=0;deletable=0;editable=0;connectable=0;spacingRight=5;" vertex="1" parent="1">
                    <mxGeometry x="552" y="459" width="60" height="30" as="geometry"/>
                </mxCell>
                <mxCell id="166" value="reg1_read" style="text;html=1;strokeColor=none;fillColor=none;align=right;verticalAlign=middle;whiteSpace=wrap;rounded=0;strokeWidth=3;fontColor=#000000;fontStyle=1;spacingLeft=5;movable=0;resizable=0;rotatable=0;deletable=0;editable=0;connectable=0;spacingRight=5;" vertex="1" parent="1">
                    <mxGeometry x="552" y="481" width="60" height="30" as="geometry"/>
                </mxCell>
                <mxCell id="167" value="reg1_addr" style="text;html=1;strokeColor=none;fillColor=none;align=right;verticalAlign=middle;whiteSpace=wrap;rounded=0;strokeWidth=3;fontColor=#000000;fontStyle=1;spacingLeft=5;movable=0;resizable=0;rotatable=0;deletable=0;editable=0;connectable=0;spacingRight=5;" vertex="1" parent="1">
                    <mxGeometry x="552.5" y="502" width="60" height="30" as="geometry"/>
                </mxCell>
                <mxCell id="173" value="reg1_addr" style="text;html=1;strokeColor=none;fillColor=none;align=right;verticalAlign=middle;whiteSpace=wrap;rounded=0;strokeWidth=3;fontColor=#000000;fontStyle=1;spacingLeft=5;movable=0;resizable=0;rotatable=0;deletable=0;editable=0;connectable=0;spacingRight=5;" vertex="1" parent="1">
                    <mxGeometry x="578.5" y="269" width="60" height="30" as="geometry"/>
                </mxCell>
                <mxCell id="174" value="reg1_read" style="text;html=1;strokeColor=none;fillColor=none;align=right;verticalAlign=middle;whiteSpace=wrap;rounded=0;strokeWidth=3;fontColor=#000000;fontStyle=1;spacingLeft=5;movable=0;resizable=0;rotatable=0;deletable=0;editable=0;connectable=0;spacingRight=5;" vertex="1" parent="1">
                    <mxGeometry x="578.5" y="288" width="60" height="30" as="geometry"/>
                </mxCell>
                <mxCell id="175" value="wreg" style="text;html=1;strokeColor=none;fillColor=none;align=right;verticalAlign=middle;whiteSpace=wrap;rounded=0;strokeWidth=3;fontColor=#000000;fontStyle=1;spacingLeft=5;movable=0;resizable=0;rotatable=0;deletable=0;editable=0;connectable=0;spacingRight=5;" vertex="1" parent="1">
                    <mxGeometry x="551.5" y="544" width="60" height="30" as="geometry"/>
                </mxCell>
                <mxCell id="176" value="wd" style="text;html=1;strokeColor=none;fillColor=none;align=right;verticalAlign=middle;whiteSpace=wrap;rounded=0;strokeWidth=3;fontColor=#000000;fontStyle=1;spacingLeft=5;movable=0;resizable=0;rotatable=0;deletable=0;editable=0;connectable=0;spacingRight=5;" vertex="1" parent="1">
                    <mxGeometry x="551.5" y="563" width="60" height="30" as="geometry"/>
                </mxCell>
                <mxCell id="177" value="wdata" style="text;html=1;strokeColor=none;fillColor=none;align=right;verticalAlign=middle;whiteSpace=wrap;rounded=0;strokeWidth=3;fontColor=#000000;fontStyle=1;spacingLeft=5;movable=0;resizable=0;rotatable=0;deletable=0;editable=0;connectable=0;spacingRight=5;" vertex="1" parent="1">
                    <mxGeometry x="552.5" y="585" width="60" height="30" as="geometry"/>
                </mxCell>
            </root>
        </mxGraphModel>
    </diagram>
</mxfile>